ply
format ascii 1.0
element vertex 12
property double x
property double y
property double z
end_header
1376.376120619396943 1613.145476772616803 0.000000000000000
2282.129991850040824 1586.152811735942123 0.000000000000000
1352.382640586796924 1136.275061124694730 0.000000000000000
2309.122656886715504 1112.281581092094939 0.000000000000000
1376.376120619396943 1022.306030969845551 0.000000000000000
2234.143031784840787 1004.310920945395651 0.000000000000000
1376.376120619396943 1613.145476772616803 0.000000000000000
2282.129991850040824 1586.152811735942123 0.000000000000000
1352.382640586796924 1136.275061124694730 0.000000000000000
2309.122656886715504 1112.281581092094939 0.000000000000000
1376.376120619396943 1022.306030969845551 0.000000000000000
2234.143031784840787 1004.310920945395651 0.000000000000000
