ply
format ascii 1.0
element vertex 14
property double x
property double y
property double z
end_header
1418.364710676446521 1397.204156479218227 0.000000000000000
1916.229421352893269 1727.114506927465754 0.000000000000000
1406.367970660146739 986.315810920945751 0.000000000000000
1925.226976365118162 1235.248166259169011 0.000000000000000
2177.158516707416311 1613.145476772616803 0.000000000000000
2198.152811735941214 1145.272616136919851 0.000000000000000
1655.300325998369999 932.330480847596164 0.000000000000000
1418.364710676446521 1397.204156479218227 0.000000000000000
1916.229421352893269 1727.114506927465754 0.000000000000000
1406.367970660146739 986.315810920945751 0.000000000000000
1925.226976365118162 1235.248166259169011 0.000000000000000
2177.158516707416311 1613.145476772616803 0.000000000000000
2198.152811735941214 1145.272616136919851 0.000000000000000
1655.300325998369999 932.330480847596164 0.000000000000000
