ply
format ascii 1.0
element vertex 12
property double x
property double y
property double z
end_header
1550.328850855745713 1649.135696821516603 0.000000000000000
1925.226976365118162 1646.136511817441487 0.000000000000000
1541.331295843520820 1142.273431132844735 0.000000000000000
1940.222901385493287 1145.272616136919851 0.000000000000000
1589.318255908720403 851.352485737571669 0.000000000000000
1886.237571312143473 851.352485737571669 0.000000000000000
1550.328850855745713 1649.135696821516603 0.000000000000000
1925.226976365118162 1646.136511817441487 0.000000000000000
1541.331295843520820 1142.273431132844735 0.000000000000000
1940.222901385493287 1145.272616136919851 0.000000000000000
1589.318255908720403 851.352485737571669 0.000000000000000
1886.237571312143473 851.352485737571669 0.000000000000000
