ply
format ascii 1.0
element vertex 14
property double x
property double y
property double z
end_header
1481.347595762021228 1562.159331703342104 0.000000000000000
1715.284026079869591 1679.127546862266399 0.000000000000000
1457.354115729421210 1097.285656071720041 0.000000000000000
1709.285656071719586 1196.258761206194549 0.000000000000000
2288.128361858190601 1391.205786471068222 0.000000000000000
2318.120211898940397 974.319070904645855 0.000000000000000
2075.186226568866914 908.337000814996259 0.000000000000000
1481.347595762021228 1562.159331703342104 0.000000000000000
1715.284026079869591 1679.127546862266399 0.000000000000000
1457.354115729421210 1097.285656071720041 0.000000000000000
1709.285656071719586 1196.258761206194549 0.000000000000000
2288.128361858190601 1391.205786471068222 0.000000000000000
2318.120211898940397 974.319070904645855 0.000000000000000
2075.186226568866914 908.337000814996259 0.000000000000000
