ply
format ascii 1.0
element vertex 12
property double x
property double y
property double z
end_header
1343.385085574572031 1595.150366748166789 0.000000000000000
2258.136511817440805 1601.148736756316794 0.000000000000000
1313.393235533822235 1115.280766096170055 0.000000000000000
2294.126731866340378 1124.278321108394948 0.000000000000000
1358.381010594946929 992.314180929095755 0.000000000000000
2243.140586797065680 1007.310105949470653 0.000000000000000
1343.385085574572031 1595.150366748166789 0.000000000000000
2258.136511817440805 1601.148736756316794 0.000000000000000
1313.393235533822235 1115.280766096170055 0.000000000000000
2294.126731866340378 1124.278321108394948 0.000000000000000
1358.381010594946929 992.314180929095755 0.000000000000000
2243.140586797065680 1007.310105949470653 0.000000000000000
