ply
format ascii 1.0
element vertex 14
property double x
property double y
property double z
end_header
1355.381825590872040 1340.219641401793524 0.000000000000000
1760.271801140994285 1664.131621841891501 0.000000000000000
1325.389975550122244 941.328035859820943 0.000000000000000
1745.275876120619387 1172.265281173594531 0.000000000000000
2045.194376528117346 1568.157701711492109 0.000000000000000
2057.191116544417127 1100.284841075795157 0.000000000000000
1586.319070904645514 884.343520782396354 0.000000000000000
1355.381825590872040 1340.219641401793524 0.000000000000000
1760.271801140994285 1664.131621841891501 0.000000000000000
1325.389975550122244 941.328035859820943 0.000000000000000
1745.275876120619387 1172.265281173594531 0.000000000000000
2045.194376528117346 1568.157701711492109 0.000000000000000
2057.191116544417127 1100.284841075795157 0.000000000000000
1586.319070904645514 884.343520782396354 0.000000000000000
