ply
format ascii 1.0
element vertex 12
property double x
property double y
property double z
end_header
1613.311735941320194 1673.129176854116395 0.000000000000000
1976.213121434392860 1676.128361858191511 0.000000000000000
1604.314180929095301 1187.261206193969429 0.000000000000000
1979.212306438467976 1184.262021189894540 0.000000000000000
1649.301955990219994 908.337000814996259 0.000000000000000
1937.223716381418171 899.339445802771479 0.000000000000000
1613.311735941320194 1673.129176854116395 0.000000000000000
1976.213121434392860 1676.128361858191511 0.000000000000000
1604.314180929095301 1187.261206193969429 0.000000000000000
1979.212306438467976 1184.262021189894540 0.000000000000000
1649.301955990219994 908.337000814996259 0.000000000000000
1937.223716381418171 899.339445802771479 0.000000000000000
