ply
format ascii 1.0
element vertex 14
property double x
property double y
property double z
end_header
1472.350040749796108 1604.147921760391910 0.000000000000000
1709.285656071719586 1724.115321923391093 0.000000000000000
1460.353300733496326 1139.274246128769846 0.000000000000000
1709.285656071719586 1229.249796251019234 0.000000000000000
2273.132436837815476 1442.191931540342921 0.000000000000000
2297.125916870415494 1025.305215973920440 0.000000000000000
2057.191116544417127 965.321515892420848 0.000000000000000
1472.350040749796108 1604.147921760391910 0.000000000000000
1709.285656071719586 1724.115321923391093 0.000000000000000
1460.353300733496326 1139.274246128769846 0.000000000000000
1709.285656071719586 1229.249796251019234 0.000000000000000
2273.132436837815476 1442.191931540342921 0.000000000000000
2297.125916870415494 1025.305215973920440 0.000000000000000
2057.191116544417127 965.321515892420848 0.000000000000000
