ply
format ascii 1.0
element vertex 12
property double x
property double y
property double z
end_header
1271.404645476772430 1931.059087204564776 0.000000000000000
2177.158516707416311 1817.090057049715597 0.000000000000000
1268.405460472697541 1298.231051344743719 0.000000000000000
2174.159331703341195 1292.232681336593942 0.000000000000000
1142.439690301548353 1292.232681336593942 0.000000000000000
1136.441320293398348 1850.081092094540281 0.000000000000000
1271.404645476772430 1931.059087204564776 0.000000000000000
2177.158516707416311 1817.090057049715597 0.000000000000000
1268.405460472697541 1298.231051344743719 0.000000000000000
2174.159331703341195 1292.232681336593942 0.000000000000000
1142.439690301548353 1292.232681336593942 0.000000000000000
1136.441320293398348 1850.081092094540281 0.000000000000000
